<mxfile host="app.diagrams.net" agent="Mozilla/5.0 (Windows NT 10.0; Win64; x64) AppleWebKit/537.36 (KHTML, like Gecko) Chrome/135.0.0.0 Safari/537.36 Edg/135.0.0.0" version="26.2.14">
  <diagram name="第 1 页" id="j7guY7xmE5RU9V2KTxUQ">
    <mxGraphModel dx="2550" dy="309" grid="0" gridSize="10" guides="1" tooltips="1" connect="1" arrows="1" fold="1" page="0" pageScale="1" pageWidth="827" pageHeight="1169" math="0" shadow="0">
      <root>
        <mxCell id="0" />
        <mxCell id="1" parent="0" />
        <mxCell id="foVSmTR7K0I8WXHdZ0a5-7" value="" style="endArrow=classic;html=1;rounded=0;strokeWidth=3;" parent="1" edge="1">
          <mxGeometry width="50" height="50" relative="1" as="geometry">
            <mxPoint x="121" y="576" as="sourcePoint" />
            <mxPoint x="69" y="660" as="targetPoint" />
          </mxGeometry>
        </mxCell>
        <mxCell id="foVSmTR7K0I8WXHdZ0a5-8" value="" style="endArrow=none;html=1;rounded=0;strokeWidth=3;" parent="1" edge="1">
          <mxGeometry width="50" height="50" relative="1" as="geometry">
            <mxPoint x="4" y="563" as="sourcePoint" />
            <mxPoint x="910" y="557" as="targetPoint" />
          </mxGeometry>
        </mxCell>
        <mxCell id="foVSmTR7K0I8WXHdZ0a5-10" value="Folder : assets" style="rounded=0;whiteSpace=wrap;html=1;fontSize=20;strokeWidth=3;" parent="1" vertex="1">
          <mxGeometry x="15" y="666" width="119" height="60" as="geometry" />
        </mxCell>
        <mxCell id="foVSmTR7K0I8WXHdZ0a5-11" value="" style="endArrow=classic;html=1;rounded=0;strokeWidth=3;" parent="1" edge="1">
          <mxGeometry width="50" height="50" relative="1" as="geometry">
            <mxPoint x="314" y="571" as="sourcePoint" />
            <mxPoint x="317" y="663" as="targetPoint" />
          </mxGeometry>
        </mxCell>
        <mxCell id="foVSmTR7K0I8WXHdZ0a5-12" value="Folder : files" style="rounded=0;whiteSpace=wrap;html=1;fontSize=20;strokeWidth=3;" parent="1" vertex="1">
          <mxGeometry x="249" y="671" width="119" height="60" as="geometry" />
        </mxCell>
        <mxCell id="foVSmTR7K0I8WXHdZ0a5-13" value="Folder : Parent_Classes" style="rounded=0;whiteSpace=wrap;html=1;fontSize=20;strokeWidth=3;" parent="1" vertex="1">
          <mxGeometry x="440" y="673" width="160" height="60" as="geometry" />
        </mxCell>
        <mxCell id="foVSmTR7K0I8WXHdZ0a5-15" value="" style="endArrow=classic;html=1;rounded=0;strokeWidth=3;" parent="1" edge="1">
          <mxGeometry width="50" height="50" relative="1" as="geometry">
            <mxPoint x="477" y="574" as="sourcePoint" />
            <mxPoint x="508" y="661" as="targetPoint" />
          </mxGeometry>
        </mxCell>
        <mxCell id="foVSmTR7K0I8WXHdZ0a5-18" value="" style="endArrow=classic;html=1;rounded=0;strokeWidth=3;" parent="1" edge="1">
          <mxGeometry width="50" height="50" relative="1" as="geometry">
            <mxPoint x="74" y="730" as="sourcePoint" />
            <mxPoint x="74" y="817" as="targetPoint" />
          </mxGeometry>
        </mxCell>
        <mxCell id="foVSmTR7K0I8WXHdZ0a5-19" value="Some_Resources : Like images,or Markdown files" style="rounded=0;whiteSpace=wrap;html=1;fontSize=20;strokeWidth=3;" parent="1" vertex="1">
          <mxGeometry x="-45" y="817" width="231" height="118" as="geometry" />
        </mxCell>
        <mxCell id="foVSmTR7K0I8WXHdZ0a5-20" value="" style="endArrow=classic;html=1;rounded=0;strokeWidth=3;" parent="1" edge="1">
          <mxGeometry width="50" height="50" relative="1" as="geometry">
            <mxPoint x="315" y="740" as="sourcePoint" />
            <mxPoint x="317" y="810" as="targetPoint" />
          </mxGeometry>
        </mxCell>
        <mxCell id="foVSmTR7K0I8WXHdZ0a5-21" value="txt_file : which stores the instrument ID which are connected to the PC" style="rounded=0;whiteSpace=wrap;html=1;fontSize=20;strokeWidth=3;" parent="1" vertex="1">
          <mxGeometry x="204" y="818" width="231" height="118" as="geometry" />
        </mxCell>
        <mxCell id="foVSmTR7K0I8WXHdZ0a5-22" value="" style="endArrow=classic;html=1;rounded=0;strokeWidth=3;" parent="1" edge="1">
          <mxGeometry width="50" height="50" relative="1" as="geometry">
            <mxPoint x="561" y="740" as="sourcePoint" />
            <mxPoint x="563" y="810" as="targetPoint" />
          </mxGeometry>
        </mxCell>
        <mxCell id="foVSmTR7K0I8WXHdZ0a5-23" value="Python files of a super class and parent classes" style="rounded=0;whiteSpace=wrap;html=1;fontSize=20;strokeWidth=3;" parent="1" vertex="1">
          <mxGeometry x="450" y="818" width="231" height="118" as="geometry" />
        </mxCell>
        <mxCell id="foVSmTR7K0I8WXHdZ0a5-25" value="" style="endArrow=classic;html=1;rounded=0;strokeWidth=3;" parent="1" edge="1">
          <mxGeometry width="50" height="50" relative="1" as="geometry">
            <mxPoint x="790" y="570" as="sourcePoint" />
            <mxPoint x="804" y="812" as="targetPoint" />
          </mxGeometry>
        </mxCell>
        <mxCell id="foVSmTR7K0I8WXHdZ0a5-26" value="Python files of child classes" style="rounded=0;whiteSpace=wrap;html=1;fontSize=20;strokeWidth=3;" parent="1" vertex="1">
          <mxGeometry x="708" y="818" width="231" height="118" as="geometry" />
        </mxCell>
        <mxCell id="foVSmTR7K0I8WXHdZ0a5-27" value="&lt;span style=&quot;font-size: 20px;&quot;&gt;instrument_drivers&lt;/span&gt;" style="rounded=0;whiteSpace=wrap;html=1;strokeWidth=3;" parent="1" vertex="1">
          <mxGeometry x="126" y="482" width="507" height="60" as="geometry" />
        </mxCell>
        <mxCell id="foVSmTR7K0I8WXHdZ0a5-28" value="Device" style="swimlane;fontStyle=1;align=center;verticalAlign=top;childLayout=stackLayout;horizontal=1;startSize=26;horizontalStack=0;resizeParent=1;resizeParentMax=0;resizeLast=0;collapsible=1;marginBottom=0;whiteSpace=wrap;html=1;strokeWidth=4;fontSize=16;" parent="1" vertex="1">
          <mxGeometry x="-30" y="991" width="402" height="136" as="geometry" />
        </mxCell>
        <mxCell id="foVSmTR7K0I8WXHdZ0a5-30" value="" style="line;strokeWidth=1;fillColor=none;align=left;verticalAlign=middle;spacingTop=-1;spacingLeft=3;spacingRight=3;rotatable=0;labelPosition=right;points=[];portConstraint=eastwest;strokeColor=inherit;" parent="foVSmTR7K0I8WXHdZ0a5-28" vertex="1">
          <mxGeometry y="26" width="402" height="8" as="geometry" />
        </mxCell>
        <mxCell id="foVSmTR7K0I8WXHdZ0a5-31" value="&lt;span style=&quot;font-size: 15px;&quot;&gt;+ reset():None&lt;/span&gt;&lt;div&gt;&lt;span style=&quot;font-size: 15px;&quot;&gt;+ identify_instrument():None&lt;/span&gt;&lt;/div&gt;&lt;div&gt;&lt;span style=&quot;font-size: 15px;&quot;&gt;+ hint(tips : str):None&lt;/span&gt;&lt;/div&gt;&lt;div&gt;&lt;span style=&quot;font-size: 15px;&quot;&gt;+ instrument_write(command : str):None&lt;/span&gt;&lt;/div&gt;&lt;div&gt;&lt;span style=&quot;font-size: 15px;&quot;&gt;+ instrument_query(command : str):result : str&lt;/span&gt;&lt;/div&gt;&lt;div&gt;&lt;span style=&quot;font-size: 15px;&quot;&gt;&lt;br&gt;&lt;/span&gt;&lt;/div&gt;" style="text;strokeColor=none;fillColor=none;align=left;verticalAlign=top;spacingLeft=4;spacingRight=4;overflow=hidden;rotatable=0;points=[[0,0.5],[1,0.5]];portConstraint=eastwest;whiteSpace=wrap;html=1;" parent="foVSmTR7K0I8WXHdZ0a5-28" vertex="1">
          <mxGeometry y="34" width="402" height="102" as="geometry" />
        </mxCell>
        <mxCell id="foVSmTR7K0I8WXHdZ0a5-40" value="Multimemter" style="swimlane;fontStyle=1;align=center;verticalAlign=top;childLayout=stackLayout;horizontal=1;startSize=26;horizontalStack=0;resizeParent=1;resizeParentMax=0;resizeLast=0;collapsible=1;marginBottom=0;whiteSpace=wrap;html=1;strokeWidth=4;fontSize=16;" parent="1" vertex="1">
          <mxGeometry x="52.5" y="1368" width="402" height="152" as="geometry">
            <mxRectangle x="52.5" y="1368" width="134" height="31" as="alternateBounds" />
          </mxGeometry>
        </mxCell>
        <mxCell id="foVSmTR7K0I8WXHdZ0a5-41" value="" style="line;strokeWidth=1;fillColor=none;align=left;verticalAlign=middle;spacingTop=-1;spacingLeft=3;spacingRight=3;rotatable=0;labelPosition=right;points=[];portConstraint=eastwest;strokeColor=inherit;" parent="foVSmTR7K0I8WXHdZ0a5-40" vertex="1">
          <mxGeometry y="26" width="402" height="8" as="geometry" />
        </mxCell>
        <mxCell id="foVSmTR7K0I8WXHdZ0a5-42" value="&lt;div&gt;&lt;span style=&quot;font-size: 15px;&quot;&gt;+ dc_voltage_measure(range : float,resolution: str): result float&lt;/span&gt;&lt;/div&gt;&lt;div&gt;&lt;span style=&quot;font-size: 15px;&quot;&gt;+ dc_voltage_measure(range : float,resolution: str): result float&lt;/span&gt;&lt;/div&gt;&lt;div&gt;&lt;span style=&quot;font-size: 15px;&quot;&gt;+ fre_measure():result:float&lt;/span&gt;&lt;/div&gt;&lt;div&gt;&lt;span style=&quot;font-size: 15px;&quot;&gt;+ buzzer_ring(tims : int) : None&lt;/span&gt;&lt;/div&gt;" style="text;strokeColor=none;fillColor=none;align=left;verticalAlign=top;spacingLeft=4;spacingRight=4;overflow=hidden;rotatable=0;points=[[0,0.5],[1,0.5]];portConstraint=eastwest;whiteSpace=wrap;html=1;" parent="foVSmTR7K0I8WXHdZ0a5-40" vertex="1">
          <mxGeometry y="34" width="402" height="118" as="geometry" />
        </mxCell>
        <mxCell id="foVSmTR7K0I8WXHdZ0a5-43" value="SMU" style="swimlane;fontStyle=1;align=center;verticalAlign=top;childLayout=stackLayout;horizontal=1;startSize=26;horizontalStack=0;resizeParent=1;resizeParentMax=0;resizeLast=0;collapsible=1;marginBottom=0;whiteSpace=wrap;html=1;strokeWidth=4;fontSize=16;" parent="1" vertex="1">
          <mxGeometry x="504" y="1325" width="402" height="394" as="geometry" />
        </mxCell>
        <mxCell id="foVSmTR7K0I8WXHdZ0a5-44" value="" style="line;strokeWidth=1;fillColor=none;align=left;verticalAlign=middle;spacingTop=-1;spacingLeft=3;spacingRight=3;rotatable=0;labelPosition=right;points=[];portConstraint=eastwest;strokeColor=inherit;" parent="foVSmTR7K0I8WXHdZ0a5-43" vertex="1">
          <mxGeometry y="26" width="402" height="8" as="geometry" />
        </mxCell>
        <mxCell id="foVSmTR7K0I8WXHdZ0a5-45" value="&lt;div&gt;&lt;span style=&quot;font-size: 15px;&quot;&gt;+ force_volt_sens_cur_init(v_out : float|str,i_limit : float|str,v_range : float|str,i_range : float|str,nplc : int) : None&lt;/span&gt;&lt;/div&gt;&lt;div&gt;&lt;span style=&quot;font-size: 15px;&quot;&gt;&lt;br&gt;&lt;/span&gt;&lt;/div&gt;&lt;div&gt;&lt;span style=&quot;font-size: 15px;&quot;&gt;+ force_cur_sens_volt_init(pIout : float|str, pVlimt : float|str,pIrange : float|str,pVrange : float|str,pNplc : float|str) : None&lt;/span&gt;&lt;/div&gt;&lt;div&gt;&lt;span style=&quot;font-size: 15px;&quot;&gt;&lt;br&gt;&lt;/span&gt;&lt;/div&gt;&lt;div&gt;&lt;span style=&quot;font-size: 15px;&quot;&gt;+enable_4wire_mode(switch : str) : None&lt;/span&gt;&lt;/div&gt;&lt;div&gt;&lt;span style=&quot;font-size: 15px;&quot;&gt;&lt;br&gt;&lt;/span&gt;&lt;/div&gt;&lt;div&gt;&lt;span style=&quot;font-size: 15px;&quot;&gt;+ current_measure(): current : float&lt;/span&gt;&lt;/div&gt;&lt;div&gt;&lt;span style=&quot;font-size: 15px;&quot;&gt;&lt;br&gt;&lt;/span&gt;&lt;/div&gt;&lt;div&gt;&lt;span style=&quot;font-size: 15px;&quot;&gt;+ voltage_measure(): voltage : float&lt;/span&gt;&lt;/div&gt;&lt;div&gt;&lt;span style=&quot;font-size: 15px;&quot;&gt;&lt;br&gt;&lt;/span&gt;&lt;/div&gt;&lt;div&gt;&lt;span style=&quot;font-size: 15px;&quot;&gt;+ output_switch(switch : str) : None&lt;/span&gt;&lt;/div&gt;&lt;div&gt;&lt;span style=&quot;font-size: 15px;&quot;&gt;&lt;br&gt;&lt;/span&gt;&lt;/div&gt;&lt;div&gt;&lt;span style=&quot;font-size: 15px;&quot;&gt;+ force_current_set(current : float): None&lt;/span&gt;&lt;/div&gt;&lt;div&gt;&lt;span style=&quot;font-size: 15px;&quot;&gt;&lt;br&gt;&lt;/span&gt;&lt;/div&gt;&lt;div&gt;&lt;span style=&quot;font-size: 15px;&quot;&gt;+ force_voltage_get(voltage : float) : None&lt;/span&gt;&lt;/div&gt;&lt;div&gt;&lt;br&gt;&lt;/div&gt;&lt;div&gt;&lt;br&gt;&lt;/div&gt;" style="text;strokeColor=none;fillColor=none;align=left;verticalAlign=top;spacingLeft=4;spacingRight=4;overflow=hidden;rotatable=0;points=[[0,0.5],[1,0.5]];portConstraint=eastwest;whiteSpace=wrap;html=1;" parent="foVSmTR7K0I8WXHdZ0a5-43" vertex="1">
          <mxGeometry y="34" width="402" height="360" as="geometry" />
        </mxCell>
        <mxCell id="foVSmTR7K0I8WXHdZ0a5-49" value="Power" style="swimlane;fontStyle=1;align=center;verticalAlign=top;childLayout=stackLayout;horizontal=1;startSize=26;horizontalStack=0;resizeParent=1;resizeParentMax=0;resizeLast=0;collapsible=1;marginBottom=0;whiteSpace=wrap;html=1;strokeWidth=4;fontSize=16;" parent="1" vertex="1">
          <mxGeometry x="-591" y="1342" width="402" height="155" as="geometry" />
        </mxCell>
        <mxCell id="foVSmTR7K0I8WXHdZ0a5-50" value="" style="line;strokeWidth=1;fillColor=none;align=left;verticalAlign=middle;spacingTop=-1;spacingLeft=3;spacingRight=3;rotatable=0;labelPosition=right;points=[];portConstraint=eastwest;strokeColor=inherit;" parent="foVSmTR7K0I8WXHdZ0a5-49" vertex="1">
          <mxGeometry y="26" width="402" height="8" as="geometry" />
        </mxCell>
        <mxCell id="foVSmTR7K0I8WXHdZ0a5-51" value="&lt;div&gt;&lt;span style=&quot;font-size: 15px;&quot;&gt;+ set_voltage_current(ch : int,vol : float,current : float) : None&lt;/span&gt;&lt;/div&gt;&lt;div&gt;&lt;span style=&quot;font-size: 15px;&quot;&gt;+ turn_on_off(ch : int,switch : str):None&lt;/span&gt;&lt;/div&gt;&lt;div&gt;&lt;span style=&quot;font-size: 15px;&quot;&gt;+ read_voltage(ch : int): result : float&lt;/span&gt;&lt;/div&gt;&lt;div&gt;&lt;span style=&quot;font-size: 15px;&quot;&gt;+ read_current(ch : int): result : float&lt;/span&gt;&lt;span style=&quot;font-size: 15px;&quot;&gt;&lt;/span&gt;&lt;/div&gt;&lt;div&gt;&lt;span style=&quot;font-size: 15px;&quot;&gt;+ read_power(ch : int): result : float&lt;/span&gt;&lt;span style=&quot;font-size: 15px;&quot;&gt;&lt;/span&gt;&lt;/div&gt;" style="text;strokeColor=none;fillColor=none;align=left;verticalAlign=top;spacingLeft=4;spacingRight=4;overflow=hidden;rotatable=0;points=[[0,0.5],[1,0.5]];portConstraint=eastwest;whiteSpace=wrap;html=1;" parent="foVSmTR7K0I8WXHdZ0a5-49" vertex="1">
          <mxGeometry y="34" width="402" height="121" as="geometry" />
        </mxCell>
        <mxCell id="foVSmTR7K0I8WXHdZ0a5-65" value="Dmm_GWinstek_9061" style="swimlane;fontStyle=1;align=center;verticalAlign=top;childLayout=stackLayout;horizontal=1;startSize=26;horizontalStack=0;resizeParent=1;resizeParentMax=0;resizeLast=0;collapsible=1;marginBottom=0;whiteSpace=wrap;html=1;strokeWidth=4;fontSize=16;" parent="1" vertex="1">
          <mxGeometry x="-30" y="1971" width="191" height="62" as="geometry" />
        </mxCell>
        <mxCell id="foVSmTR7K0I8WXHdZ0a5-66" value="" style="line;strokeWidth=1;fillColor=none;align=left;verticalAlign=middle;spacingTop=-1;spacingLeft=3;spacingRight=3;rotatable=0;labelPosition=right;points=[];portConstraint=eastwest;strokeColor=inherit;" parent="foVSmTR7K0I8WXHdZ0a5-65" vertex="1">
          <mxGeometry y="26" width="191" height="8" as="geometry" />
        </mxCell>
        <mxCell id="foVSmTR7K0I8WXHdZ0a5-67" value="&lt;div&gt;&lt;br&gt;&lt;/div&gt;" style="text;strokeColor=none;fillColor=none;align=left;verticalAlign=top;spacingLeft=4;spacingRight=4;overflow=hidden;rotatable=0;points=[[0,0.5],[1,0.5]];portConstraint=eastwest;whiteSpace=wrap;html=1;" parent="foVSmTR7K0I8WXHdZ0a5-65" vertex="1">
          <mxGeometry y="34" width="191" height="28" as="geometry" />
        </mxCell>
        <mxCell id="foVSmTR7K0I8WXHdZ0a5-71" value="" style="endArrow=classic;startArrow=classic;html=1;rounded=0;strokeWidth=4;exitX=0.814;exitY=0.058;exitDx=0;exitDy=0;exitPerimeter=0;entryX=0.5;entryY=1;entryDx=0;entryDy=0;" parent="1" edge="1" target="foVSmTR7K0I8WXHdZ0a5-72" source="foVSmTR7K0I8WXHdZ0a5-73">
          <mxGeometry width="50" height="50" relative="1" as="geometry">
            <mxPoint x="-724" y="1949" as="sourcePoint" />
            <mxPoint x="-567.02" y="1699.7500000000002" as="targetPoint" />
          </mxGeometry>
        </mxCell>
        <mxCell id="foVSmTR7K0I8WXHdZ0a5-72" value="Parent" style="text;html=1;align=center;verticalAlign=middle;whiteSpace=wrap;rounded=0;fontSize=17;" parent="1" vertex="1">
          <mxGeometry x="-585" y="1497" width="60" height="30" as="geometry" />
        </mxCell>
        <mxCell id="foVSmTR7K0I8WXHdZ0a5-73" value="Child" style="text;html=1;align=center;verticalAlign=middle;whiteSpace=wrap;rounded=0;fontSize=17;" parent="1" vertex="1">
          <mxGeometry x="-785" y="1924" width="60" height="30" as="geometry" />
        </mxCell>
        <mxCell id="foVSmTR7K0I8WXHdZ0a5-74" value="" style="endArrow=classic;startArrow=classic;html=1;rounded=0;strokeWidth=4;" parent="1" edge="1">
          <mxGeometry width="50" height="50" relative="1" as="geometry">
            <mxPoint x="211" y="1360" as="sourcePoint" />
            <mxPoint x="199" y="1145" as="targetPoint" />
          </mxGeometry>
        </mxCell>
        <mxCell id="foVSmTR7K0I8WXHdZ0a5-75" value="Parent" style="text;html=1;align=center;verticalAlign=middle;whiteSpace=wrap;rounded=0;fontSize=17;" parent="1" vertex="1">
          <mxGeometry x="120" y="1154" width="60" height="30" as="geometry" />
        </mxCell>
        <mxCell id="foVSmTR7K0I8WXHdZ0a5-76" value="Child" style="text;html=1;align=center;verticalAlign=middle;whiteSpace=wrap;rounded=0;fontSize=17;" parent="1" vertex="1">
          <mxGeometry x="131" y="1319" width="60" height="30" as="geometry" />
        </mxCell>
        <mxCell id="foVSmTR7K0I8WXHdZ0a5-77" value="" style="endArrow=classic;startArrow=classic;html=1;rounded=0;strokeWidth=4;" parent="1" edge="1">
          <mxGeometry width="50" height="50" relative="1" as="geometry">
            <mxPoint x="668" y="1319" as="sourcePoint" />
            <mxPoint x="378" y="1140" as="targetPoint" />
          </mxGeometry>
        </mxCell>
        <mxCell id="foVSmTR7K0I8WXHdZ0a5-78" value="Parent" style="text;html=1;align=center;verticalAlign=middle;whiteSpace=wrap;rounded=0;fontSize=17;" parent="1" vertex="1">
          <mxGeometry x="364" y="1162" width="60" height="30" as="geometry" />
        </mxCell>
        <mxCell id="foVSmTR7K0I8WXHdZ0a5-79" value="Child" style="text;html=1;align=center;verticalAlign=middle;whiteSpace=wrap;rounded=0;fontSize=17;" parent="1" vertex="1">
          <mxGeometry x="535.5" y="1282" width="60" height="30" as="geometry" />
        </mxCell>
        <mxCell id="foVSmTR7K0I8WXHdZ0a5-85" value="&lt;br&gt;&lt;div&gt;&lt;br&gt;&lt;/div&gt;&lt;div&gt;&lt;br&gt;&lt;/div&gt;&lt;div&gt;&lt;br&gt;&lt;/div&gt;" style="text;strokeColor=none;fillColor=none;align=left;verticalAlign=top;spacingLeft=4;spacingRight=4;overflow=hidden;rotatable=0;points=[[0,0.5],[1,0.5]];portConstraint=eastwest;whiteSpace=wrap;html=1;" parent="1" vertex="1">
          <mxGeometry x="817" y="1866" width="402" height="121" as="geometry" />
        </mxCell>
        <mxCell id="-lNWITNnVNxcYOsqwF6a-1" value="Power_GWinstek_6030" style="swimlane;fontStyle=1;align=center;verticalAlign=top;childLayout=stackLayout;horizontal=1;startSize=26;horizontalStack=0;resizeParent=1;resizeParentMax=0;resizeLast=0;collapsible=1;marginBottom=0;whiteSpace=wrap;html=1;strokeWidth=4;fontSize=16;" vertex="1" parent="1">
          <mxGeometry x="-593" y="1956" width="228" height="79" as="geometry" />
        </mxCell>
        <mxCell id="-lNWITNnVNxcYOsqwF6a-2" value="" style="line;strokeWidth=1;fillColor=none;align=left;verticalAlign=middle;spacingTop=-1;spacingLeft=3;spacingRight=3;rotatable=0;labelPosition=right;points=[];portConstraint=eastwest;strokeColor=inherit;" vertex="1" parent="-lNWITNnVNxcYOsqwF6a-1">
          <mxGeometry y="26" width="228" height="8" as="geometry" />
        </mxCell>
        <mxCell id="-lNWITNnVNxcYOsqwF6a-3" value="&lt;br&gt;&lt;div&gt;&lt;br&gt;&lt;/div&gt;&lt;div&gt;&lt;br&gt;&lt;/div&gt;&lt;div&gt;&lt;br&gt;&lt;/div&gt;" style="text;strokeColor=none;fillColor=none;align=left;verticalAlign=top;spacingLeft=4;spacingRight=4;overflow=hidden;rotatable=0;points=[[0,0.5],[1,0.5]];portConstraint=eastwest;whiteSpace=wrap;html=1;" vertex="1" parent="-lNWITNnVNxcYOsqwF6a-1">
          <mxGeometry y="34" width="228" height="45" as="geometry" />
        </mxCell>
        <mxCell id="-lNWITNnVNxcYOsqwF6a-4" value="Dmm_Keysight_34461A" style="swimlane;fontStyle=1;align=center;verticalAlign=top;childLayout=stackLayout;horizontal=1;startSize=26;horizontalStack=0;resizeParent=1;resizeParentMax=0;resizeLast=0;collapsible=1;marginBottom=0;whiteSpace=wrap;html=1;strokeWidth=4;fontSize=16;" vertex="1" parent="1">
          <mxGeometry x="201" y="1965" width="192" height="68" as="geometry" />
        </mxCell>
        <mxCell id="-lNWITNnVNxcYOsqwF6a-5" value="" style="line;strokeWidth=1;fillColor=none;align=left;verticalAlign=middle;spacingTop=-1;spacingLeft=3;spacingRight=3;rotatable=0;labelPosition=right;points=[];portConstraint=eastwest;strokeColor=inherit;" vertex="1" parent="-lNWITNnVNxcYOsqwF6a-4">
          <mxGeometry y="26" width="192" height="8" as="geometry" />
        </mxCell>
        <mxCell id="-lNWITNnVNxcYOsqwF6a-6" value="&lt;div&gt;&lt;br&gt;&lt;/div&gt;" style="text;strokeColor=none;fillColor=none;align=left;verticalAlign=top;spacingLeft=4;spacingRight=4;overflow=hidden;rotatable=0;points=[[0,0.5],[1,0.5]];portConstraint=eastwest;whiteSpace=wrap;html=1;" vertex="1" parent="-lNWITNnVNxcYOsqwF6a-4">
          <mxGeometry y="34" width="192" height="34" as="geometry" />
        </mxCell>
        <mxCell id="-lNWITNnVNxcYOsqwF6a-7" value="Power_Rigol_DP831A" style="swimlane;fontStyle=1;align=center;verticalAlign=top;childLayout=stackLayout;horizontal=1;startSize=26;horizontalStack=0;resizeParent=1;resizeParentMax=0;resizeLast=0;collapsible=1;marginBottom=0;whiteSpace=wrap;html=1;strokeWidth=4;fontSize=16;" vertex="1" parent="1">
          <mxGeometry x="-861" y="1959" width="228" height="66" as="geometry" />
        </mxCell>
        <mxCell id="-lNWITNnVNxcYOsqwF6a-8" value="" style="line;strokeWidth=1;fillColor=none;align=left;verticalAlign=middle;spacingTop=-1;spacingLeft=3;spacingRight=3;rotatable=0;labelPosition=right;points=[];portConstraint=eastwest;strokeColor=inherit;" vertex="1" parent="-lNWITNnVNxcYOsqwF6a-7">
          <mxGeometry y="26" width="228" height="8" as="geometry" />
        </mxCell>
        <mxCell id="-lNWITNnVNxcYOsqwF6a-9" value="&lt;br&gt;&lt;div&gt;&lt;br&gt;&lt;/div&gt;&lt;div&gt;&lt;br&gt;&lt;/div&gt;&lt;div&gt;&lt;br&gt;&lt;/div&gt;" style="text;strokeColor=none;fillColor=none;align=left;verticalAlign=top;spacingLeft=4;spacingRight=4;overflow=hidden;rotatable=0;points=[[0,0.5],[1,0.5]];portConstraint=eastwest;whiteSpace=wrap;html=1;" vertex="1" parent="-lNWITNnVNxcYOsqwF6a-7">
          <mxGeometry y="34" width="228" height="32" as="geometry" />
        </mxCell>
        <mxCell id="-lNWITNnVNxcYOsqwF6a-13" value="Smu_Keithley_2460" style="swimlane;fontStyle=1;align=center;verticalAlign=top;childLayout=stackLayout;horizontal=1;startSize=26;horizontalStack=0;resizeParent=1;resizeParentMax=0;resizeLast=0;collapsible=1;marginBottom=0;whiteSpace=wrap;html=1;strokeWidth=4;fontSize=16;" vertex="1" parent="1">
          <mxGeometry x="952" y="1883" width="402" height="155" as="geometry" />
        </mxCell>
        <mxCell id="-lNWITNnVNxcYOsqwF6a-14" value="" style="line;strokeWidth=1;fillColor=none;align=left;verticalAlign=middle;spacingTop=-1;spacingLeft=3;spacingRight=3;rotatable=0;labelPosition=right;points=[];portConstraint=eastwest;strokeColor=inherit;" vertex="1" parent="-lNWITNnVNxcYOsqwF6a-13">
          <mxGeometry y="26" width="402" height="8" as="geometry" />
        </mxCell>
        <mxCell id="-lNWITNnVNxcYOsqwF6a-15" value="&lt;br&gt;&lt;div&gt;&lt;br&gt;&lt;/div&gt;&lt;div&gt;&lt;br&gt;&lt;/div&gt;&lt;div&gt;&lt;br&gt;&lt;/div&gt;" style="text;strokeColor=none;fillColor=none;align=left;verticalAlign=top;spacingLeft=4;spacingRight=4;overflow=hidden;rotatable=0;points=[[0,0.5],[1,0.5]];portConstraint=eastwest;whiteSpace=wrap;html=1;" vertex="1" parent="-lNWITNnVNxcYOsqwF6a-13">
          <mxGeometry y="34" width="402" height="121" as="geometry" />
        </mxCell>
        <mxCell id="-lNWITNnVNxcYOsqwF6a-18" value="Power_Rigol_DP821A" style="swimlane;fontStyle=1;align=center;verticalAlign=top;childLayout=stackLayout;horizontal=1;startSize=26;horizontalStack=0;resizeParent=1;resizeParentMax=0;resizeLast=0;collapsible=1;marginBottom=0;whiteSpace=wrap;html=1;strokeWidth=4;fontSize=16;" vertex="1" parent="1">
          <mxGeometry x="-325" y="1966" width="228" height="66" as="geometry" />
        </mxCell>
        <mxCell id="-lNWITNnVNxcYOsqwF6a-19" value="" style="line;strokeWidth=1;fillColor=none;align=left;verticalAlign=middle;spacingTop=-1;spacingLeft=3;spacingRight=3;rotatable=0;labelPosition=right;points=[];portConstraint=eastwest;strokeColor=inherit;" vertex="1" parent="-lNWITNnVNxcYOsqwF6a-18">
          <mxGeometry y="26" width="228" height="8" as="geometry" />
        </mxCell>
        <mxCell id="-lNWITNnVNxcYOsqwF6a-20" value="&lt;br&gt;&lt;div&gt;&lt;br&gt;&lt;/div&gt;&lt;div&gt;&lt;br&gt;&lt;/div&gt;&lt;div&gt;&lt;br&gt;&lt;/div&gt;" style="text;strokeColor=none;fillColor=none;align=left;verticalAlign=top;spacingLeft=4;spacingRight=4;overflow=hidden;rotatable=0;points=[[0,0.5],[1,0.5]];portConstraint=eastwest;whiteSpace=wrap;html=1;" vertex="1" parent="-lNWITNnVNxcYOsqwF6a-18">
          <mxGeometry y="34" width="228" height="32" as="geometry" />
        </mxCell>
        <mxCell id="-lNWITNnVNxcYOsqwF6a-21" value="" style="endArrow=classic;startArrow=classic;html=1;rounded=0;strokeWidth=4;" edge="1" parent="1" source="-lNWITNnVNxcYOsqwF6a-23" target="-lNWITNnVNxcYOsqwF6a-22">
          <mxGeometry width="50" height="50" relative="1" as="geometry">
            <mxPoint x="-540" y="1953" as="sourcePoint" />
            <mxPoint x="-414" y="1807" as="targetPoint" />
          </mxGeometry>
        </mxCell>
        <mxCell id="-lNWITNnVNxcYOsqwF6a-22" value="Parent" style="text;html=1;align=center;verticalAlign=middle;whiteSpace=wrap;rounded=0;fontSize=17;" vertex="1" parent="1">
          <mxGeometry x="-474" y="1507" width="60" height="30" as="geometry" />
        </mxCell>
        <mxCell id="-lNWITNnVNxcYOsqwF6a-23" value="Child" style="text;html=1;align=center;verticalAlign=middle;whiteSpace=wrap;rounded=0;fontSize=17;" vertex="1" parent="1">
          <mxGeometry x="-513" y="1919" width="60" height="30" as="geometry" />
        </mxCell>
        <mxCell id="-lNWITNnVNxcYOsqwF6a-24" value="Child" style="text;html=1;align=center;verticalAlign=middle;whiteSpace=wrap;rounded=0;fontSize=17;" vertex="1" parent="1">
          <mxGeometry x="-257" y="1929" width="60" height="30" as="geometry" />
        </mxCell>
        <mxCell id="-lNWITNnVNxcYOsqwF6a-25" value="Parent" style="text;html=1;align=center;verticalAlign=middle;whiteSpace=wrap;rounded=0;fontSize=17;" vertex="1" parent="1">
          <mxGeometry x="-328" y="1507" width="60" height="30" as="geometry" />
        </mxCell>
        <mxCell id="-lNWITNnVNxcYOsqwF6a-26" value="" style="endArrow=classic;startArrow=classic;html=1;rounded=0;strokeWidth=4;entryX=0.445;entryY=0.97;entryDx=0;entryDy=0;entryPerimeter=0;exitX=0.629;exitY=0.028;exitDx=0;exitDy=0;exitPerimeter=0;" edge="1" parent="1" source="-lNWITNnVNxcYOsqwF6a-24" target="-lNWITNnVNxcYOsqwF6a-25">
          <mxGeometry width="50" height="50" relative="1" as="geometry">
            <mxPoint x="-239" y="1966" as="sourcePoint" />
            <mxPoint x="-266" y="1807" as="targetPoint" />
          </mxGeometry>
        </mxCell>
        <mxCell id="-lNWITNnVNxcYOsqwF6a-27" value="Child" style="text;html=1;align=center;verticalAlign=middle;whiteSpace=wrap;rounded=0;fontSize=17;" vertex="1" parent="1">
          <mxGeometry x="-414" y="1285" width="60" height="30" as="geometry" />
        </mxCell>
        <mxCell id="-lNWITNnVNxcYOsqwF6a-28" value="Parent" style="text;html=1;align=center;verticalAlign=middle;whiteSpace=wrap;rounded=0;fontSize=17;" vertex="1" parent="1">
          <mxGeometry x="-134" y="1136" width="60" height="30" as="geometry" />
        </mxCell>
        <mxCell id="-lNWITNnVNxcYOsqwF6a-29" value="" style="endArrow=classic;startArrow=classic;html=1;rounded=0;strokeWidth=4;" edge="1" parent="1">
          <mxGeometry width="50" height="50" relative="1" as="geometry">
            <mxPoint x="-367" y="1334" as="sourcePoint" />
            <mxPoint x="-24" y="1144" as="targetPoint" />
          </mxGeometry>
        </mxCell>
        <mxCell id="-lNWITNnVNxcYOsqwF6a-33" value="" style="endArrow=classic;startArrow=classic;html=1;rounded=0;strokeWidth=4;entryX=0.5;entryY=1;entryDx=0;entryDy=0;" edge="1" parent="1" source="-lNWITNnVNxcYOsqwF6a-35" target="-lNWITNnVNxcYOsqwF6a-34">
          <mxGeometry width="50" height="50" relative="1" as="geometry">
            <mxPoint x="80" y="2003" as="sourcePoint" />
            <mxPoint x="71" y="1870" as="targetPoint" />
          </mxGeometry>
        </mxCell>
        <mxCell id="-lNWITNnVNxcYOsqwF6a-34" value="Parent" style="text;html=1;align=center;verticalAlign=middle;whiteSpace=wrap;rounded=0;fontSize=17;" vertex="1" parent="1">
          <mxGeometry x="106" y="1520" width="60" height="30" as="geometry" />
        </mxCell>
        <mxCell id="-lNWITNnVNxcYOsqwF6a-35" value="Child" style="text;html=1;align=center;verticalAlign=middle;whiteSpace=wrap;rounded=0;fontSize=17;" vertex="1" parent="1">
          <mxGeometry x="-35" y="1941" width="60" height="30" as="geometry" />
        </mxCell>
        <mxCell id="-lNWITNnVNxcYOsqwF6a-36" value="" style="endArrow=classic;startArrow=classic;html=1;rounded=0;strokeWidth=4;exitX=0.25;exitY=0;exitDx=0;exitDy=0;entryX=0.5;entryY=1;entryDx=0;entryDy=0;" edge="1" parent="1" source="-lNWITNnVNxcYOsqwF6a-38" target="-lNWITNnVNxcYOsqwF6a-37">
          <mxGeometry width="50" height="50" relative="1" as="geometry">
            <mxPoint x="354" y="2020" as="sourcePoint" />
            <mxPoint x="345" y="1887" as="targetPoint" />
          </mxGeometry>
        </mxCell>
        <mxCell id="-lNWITNnVNxcYOsqwF6a-37" value="Parent" style="text;html=1;align=center;verticalAlign=middle;whiteSpace=wrap;rounded=0;fontSize=17;" vertex="1" parent="1">
          <mxGeometry x="263" y="1527" width="60" height="30" as="geometry" />
        </mxCell>
        <mxCell id="-lNWITNnVNxcYOsqwF6a-38" value="Child" style="text;html=1;align=center;verticalAlign=middle;whiteSpace=wrap;rounded=0;fontSize=17;" vertex="1" parent="1">
          <mxGeometry x="319" y="1941" width="60" height="30" as="geometry" />
        </mxCell>
        <mxCell id="-lNWITNnVNxcYOsqwF6a-12" value="&lt;br&gt;&lt;div&gt;&lt;br&gt;&lt;/div&gt;&lt;div&gt;&lt;br&gt;&lt;/div&gt;&lt;div&gt;&lt;br&gt;&lt;/div&gt;" style="text;strokeColor=none;fillColor=none;align=left;verticalAlign=top;spacingLeft=4;spacingRight=4;overflow=hidden;rotatable=0;points=[[0,0.5],[1,0.5]];portConstraint=eastwest;whiteSpace=wrap;html=1;" vertex="1" parent="1">
          <mxGeometry x="645" y="1844" width="402" height="121" as="geometry" />
        </mxCell>
        <mxCell id="-lNWITNnVNxcYOsqwF6a-41" value="Smu_Keithley_2450" style="swimlane;fontStyle=1;align=center;verticalAlign=top;childLayout=stackLayout;horizontal=1;startSize=26;horizontalStack=0;resizeParent=1;resizeParentMax=0;resizeLast=0;collapsible=1;marginBottom=0;whiteSpace=wrap;html=1;strokeWidth=4;fontSize=16;" vertex="1" parent="1">
          <mxGeometry x="531" y="1883" width="402" height="155" as="geometry" />
        </mxCell>
        <mxCell id="-lNWITNnVNxcYOsqwF6a-42" value="" style="line;strokeWidth=1;fillColor=none;align=left;verticalAlign=middle;spacingTop=-1;spacingLeft=3;spacingRight=3;rotatable=0;labelPosition=right;points=[];portConstraint=eastwest;strokeColor=inherit;" vertex="1" parent="-lNWITNnVNxcYOsqwF6a-41">
          <mxGeometry y="26" width="402" height="8" as="geometry" />
        </mxCell>
        <mxCell id="-lNWITNnVNxcYOsqwF6a-43" value="&lt;br&gt;&lt;div&gt;&lt;br&gt;&lt;/div&gt;&lt;div&gt;&lt;br&gt;&lt;/div&gt;&lt;div&gt;&lt;br&gt;&lt;/div&gt;" style="text;strokeColor=none;fillColor=none;align=left;verticalAlign=top;spacingLeft=4;spacingRight=4;overflow=hidden;rotatable=0;points=[[0,0.5],[1,0.5]];portConstraint=eastwest;whiteSpace=wrap;html=1;" vertex="1" parent="-lNWITNnVNxcYOsqwF6a-41">
          <mxGeometry y="34" width="402" height="121" as="geometry" />
        </mxCell>
        <mxCell id="-lNWITNnVNxcYOsqwF6a-52" value="" style="endArrow=classic;startArrow=classic;html=1;rounded=0;strokeWidth=4;exitX=0.25;exitY=0;exitDx=0;exitDy=0;entryX=0.5;entryY=1;entryDx=0;entryDy=0;" edge="1" parent="1" source="-lNWITNnVNxcYOsqwF6a-54" target="-lNWITNnVNxcYOsqwF6a-53">
          <mxGeometry width="50" height="50" relative="1" as="geometry">
            <mxPoint x="758" y="1929" as="sourcePoint" />
            <mxPoint x="749" y="1796" as="targetPoint" />
          </mxGeometry>
        </mxCell>
        <mxCell id="-lNWITNnVNxcYOsqwF6a-53" value="Parent" style="text;html=1;align=center;verticalAlign=middle;whiteSpace=wrap;rounded=0;fontSize=17;" vertex="1" parent="1">
          <mxGeometry x="699" y="1733" width="60" height="30" as="geometry" />
        </mxCell>
        <mxCell id="-lNWITNnVNxcYOsqwF6a-54" value="Child" style="text;html=1;align=center;verticalAlign=middle;whiteSpace=wrap;rounded=0;fontSize=17;" vertex="1" parent="1">
          <mxGeometry x="723" y="1850" width="60" height="30" as="geometry" />
        </mxCell>
        <mxCell id="-lNWITNnVNxcYOsqwF6a-58" value="" style="endArrow=classic;startArrow=classic;html=1;rounded=0;strokeWidth=4;exitX=0.25;exitY=0;exitDx=0;exitDy=0;entryX=0.5;entryY=1;entryDx=0;entryDy=0;" edge="1" parent="1" source="-lNWITNnVNxcYOsqwF6a-60" target="-lNWITNnVNxcYOsqwF6a-59">
          <mxGeometry width="50" height="50" relative="1" as="geometry">
            <mxPoint x="768" y="1939" as="sourcePoint" />
            <mxPoint x="759" y="1806" as="targetPoint" />
          </mxGeometry>
        </mxCell>
        <mxCell id="-lNWITNnVNxcYOsqwF6a-59" value="Parent" style="text;html=1;align=center;verticalAlign=middle;whiteSpace=wrap;rounded=0;fontSize=17;" vertex="1" parent="1">
          <mxGeometry x="835" y="1722" width="60" height="30" as="geometry" />
        </mxCell>
        <mxCell id="-lNWITNnVNxcYOsqwF6a-60" value="Child" style="text;html=1;align=center;verticalAlign=middle;whiteSpace=wrap;rounded=0;fontSize=17;" vertex="1" parent="1">
          <mxGeometry x="1034" y="1868" width="60" height="30" as="geometry" />
        </mxCell>
      </root>
    </mxGraphModel>
  </diagram>
</mxfile>
